inDegrees=no
num_controls=7
num_derivatives=13
num_iterations=182
num_multipliers=7
num_parameters=0
num_slacks=7
num_states=26
objective=5.473224
objective_accelerations=0.617263
objective_balance=0.050244
objective_effort=0.507345
objective_height=4.257149
objective_ligament=0.041223
solver_duration=2179.262878
status=Solve_Succeeded
success=true
DataType=double
version=3
OpenSimVersion=4.4-2022-07-23-0e9fedc
endheader
time	/jointset/ground_pelvis/pelvis_tilt/value	/jointset/ground_pelvis/pelvis_tx/value	/jointset/ground_pelvis/pelvis_ty/value	/jointset/hip_l/hip_flexion_l/value	/jointset/hip_l/hip_adduction_l/value	/jointset/hip_l/hip_rotation_l/value	/jointset/back/lumbar_extension/value	/jointset/patellofemoral_l/patellar_flexion_l/value	/jointset/knee_l/knee_flexion_l/value	/jointset/knee_l/knee_adduction_l/value	/jointset/knee_l/knee_rotation_l/value	/jointset/ankle_l/ankle_angle_l/value	/jointset/subtalar_l/subtalar_angle_l/value	/jointset/ground_pelvis/pelvis_tilt/speed	/jointset/ground_pelvis/pelvis_tx/speed	/jointset/ground_pelvis/pelvis_ty/speed	/jointset/hip_l/hip_flexion_l/speed	/jointset/hip_l/hip_adduction_l/speed	/jointset/hip_l/hip_rotation_l/speed	/jointset/back/lumbar_extension/speed	/jointset/patellofemoral_l/patellar_flexion_l/speed	/jointset/knee_l/knee_flexion_l/speed	/jointset/knee_l/knee_adduction_l/speed	/jointset/knee_l/knee_rotation_l/speed	/jointset/ankle_l/ankle_angle_l/speed	/jointset/subtalar_l/subtalar_angle_l/speed	/forceset/tau_hip_flexion_l	/forceset/tau_hip_adduction_l	/forceset/tau_hip_rotation_l	/forceset/tau_knee_flexion_l	/forceset/tau_ankle_angle_l	/forceset/tau_subtalar_angle_l	/forceset/tau_lumbar_extension	lambda_cid13_p0	lambda_cid13_p1	lambda_cid13_p2	lambda_cid13_p3	lambda_cid13_p4	lambda_cid13_p5	lambda_cid14_p0	/jointset/ground_pelvis/pelvis_tilt/accel	/jointset/ground_pelvis/pelvis_tx/accel	/jointset/ground_pelvis/pelvis_ty/accel	/jointset/hip_l/hip_flexion_l/accel	/jointset/hip_l/hip_adduction_l/accel	/jointset/hip_l/hip_rotation_l/accel	/jointset/back/lumbar_extension/accel	/jointset/patellofemoral_l/patellar_flexion_l/accel	/jointset/knee_l/knee_flexion_l/accel	/jointset/knee_l/knee_adduction_l/accel	/jointset/knee_l/knee_rotation_l/accel	/jointset/ankle_l/ankle_angle_l/accel	/jointset/subtalar_l/subtalar_angle_l/accel	gamma_cid13_p0	gamma_cid13_p1	gamma_cid13_p2	gamma_cid13_p3	gamma_cid13_p4	gamma_cid13_p5	gamma_cid14_p0
0	-0.1581260223951712	0.05781590771028158	0.8979309969547271	0.3774920279260975	-0.2601149815529373	-0.2562083857911142	-0.0126506700172305	0.03223623128433258	0.03223623128433527	-0.1745329251994329	0.1585334807243482	-0.04231376238535053	-0.01043458898715694	0	0	0	0	0	0	0	0	0	0	0	0	0	0.1379042464858767	-0.06095764210481472	-0.04291642820435582	-0.2635711381997404	0.2276939004686562	-0.03438571638946131	-0.08980664098252976	30.86208423482755	3.604139817630466	5.791727875390954	24.11761554375565	-588.237640329299	-67.70410812866685	-38.58039264020052	-4.928279246189406	-2.807412063843901	-1.1999580295387	13.46949189176835	-1.058591056585721	2.46787902490194	-5.975136158483132	8.099883292538006	8.099883292537518	0.05076461295321674	0.2667816131817928	-0.434660874020536	-1.184661103426179	-5.747359660107113e-09	1.000414004422332e-07	3.927661924773103e-08	-1.153275858288033e-08	1.120417845816294e-07	5.626392884779186e-08	-4.724795973859482e-09
0.01	-0.158364861102182	0.05767745239794445	0.8978722814775902	0.3781495566957944	-0.260168063441204	-0.2560857142530344	-0.01295058226021241	0.03263200676398909	0.03263200676398856	-0.1745328781124567	0.1585445834387885	-0.0423367798998952	-0.0104942452359608	-0.04753735686405446	-0.02753926549068086	-0.0116987039281967	0.1308735762069942	-0.0105659927875224	0.02441206179672947	-0.05956970070348828	0.07881336237250716	0.07881336237250532	7.105915993272502e-06	0.002226634734816298	-0.004541712172292949	-0.01186532140481748	0.1330071527794295	-0.06842441176429029	-0.04217102589994248	-0.259580410786495	0.2225445951070831	-0.02442691802451553	-0.08548056208891802	29.59047303293933	-0.2840605447041556	6.166880757429254	23.53212591588708	-589.2992984028165	-75.19928619895028	-38.59213393447541	-4.631912478390793	-2.704416551542292	-1.14814544123582	12.8014596934017	-1.048059648992441	2.409529307371105	-5.885974842426666	7.720803620768682	7.720803620768724	-0.02489853183642343	0.201515964909964	-0.4546568776827298	-1.17759876731042	-2.343930796317646e-08	1.011372833064124e-07	7.165234163480488e-08	2.902983627295909e-09	-1.153158722009218e-08	5.738775381633585e-08	-1.055320287457005e-08
0.02	-0.159072163092207	0.05726815787872828	0.8976979151878163	0.3800968550692111	-0.2603252965091774	-0.2557225901869253	-0.01383380907345781	0.03380566404959913	0.03380566404959948	-0.174532867969509	0.1585781348128385	-0.04240336063393257	-0.01067058092047303	-0.09369265660320834	-0.05416784137580712	-0.02313016252742832	0.2579539207434594	-0.02083023594132355	0.04809050560596544	-0.1166629140527834	0.1555763611914778	0.1555763611914767	-9.072678366818187e-06	0.00448973192076762	-0.00871264389854756	-0.02333588714167119	0.1281100590729883	-0.07589118142376497	-0.04142562359549547	-0.2555896833732565	0.2173952897455077	-0.01446811965956981	-0.08115448319529947	28.38987237032111	-4.184499963032732	6.54376462835601	22.90329742993638	-589.2188678650676	-82.6102367663176	-38.62680222361077	-4.651867821209359	-2.625274142732917	-1.146508963745687	12.71084555766248	-0.998241129841526	2.321155427403245	-5.479838687644529	7.689810581830684	7.68981058183071	0.04610771088243131	0.2740741034087971	-0.3605047848128115	-1.105709969833466	-4.11312562662458e-08	1.022331661705915e-07	1.040280640218787e-07	1.733872583747214e-08	-1.351049590218137e-07	5.851157878487983e-08	-1.638160977528063e-08
0.03	-0.1602344202739177	0.05659699931243333	0.8974102941093924	0.3832966983997605	-0.2605834530033839	-0.2551261452988209	-0.01527524494106813	0.03573684013206076	0.03573684013206034	-0.1745328621507163	0.15863429974249	-0.04250992487211522	-0.01095947713338451	-0.1385192633039533	-0.07992260337000272	-0.03437105887845301	0.3813922313341061	-0.03074269278977751	0.07109660025136422	-0.1712184061007089	0.2303121394584135	0.2303121394584112	5.398041531852288e-06	0.006724923360297719	-0.01255650308098784	-0.0343742806104554	0.1219587260113834	-0.07132918199270914	-0.04061227614982495	-0.2504914506686051	0.2134014547468379	-0.01610741380262995	-0.07602517382065717	27.10643270550178	-3.347054200736021	6.523586058118445	22.69025187442198	-588.8956001130501	-80.04797613300236	-38.68333920724982	-4.362134956112301	-2.529383424571114	-1.1094583492169	12.06693872574167	-0.9790040167248136	2.275040265589882	-5.382526458156185	7.313457372614341	7.313457372614144	-0.02158710542238481	0.1954777814643088	-0.3897718644150997	-1.092570567126318	-5.483705989038569e-08	1.141760341119114e-07	1.233778367492501e-07	2.945421216067134e-08	-2.240110069334805e-07	6.482368909917093e-08	-1.937650499635518e-08
0.04	-0.1618377590949556	0.05567253188683496	0.897010948391771	0.3877122478194139	-0.2609389852769507	-0.254302698707767	-0.01725006012811532	0.03840497318188833	0.03840497318188868	-0.1745328523963417	0.1587122638099872	-0.04265361677801333	-0.01135669058732892	-0.1819089844689143	-0.1048296132364911	-0.04547509036692719	0.5010951385637892	-0.04030539181333139	0.09349084619603114	-0.2233387779402265	0.3029677546649215	0.3029677546649174	-8.285557207995054e-06	0.008849559489394183	-0.01613817744164618	-0.04499933534825646	0.1158073929497883	-0.06676718256165144	-0.03979892870413739	-0.2453932179639524	0.209407619748169	-0.01774670794568833	-0.07089586444600804	25.88709742201357	-2.52010878209949	6.504256054056923	22.43246516657376	-587.5531971989552	-77.40551685020213	-38.7605547430766	-4.364490714052622	-2.455723717191433	-1.119135991235583	11.96376488546972	-0.9282895648615026	2.198785687256878	-4.992814645962975	7.273777969745147	7.273777969745054	0.04047684715474315	0.2519630413220621	-0.3080678204563618	-1.023042223636813	-6.846067496444455e-08	1.263425512300796e-07	1.424590331949781e-07	4.152185815630399e-08	-3.122022646618471e-07	7.124277436904446e-08	-2.231297729620012e-08
0.05	-0.1638683919216607	0.05450324057544656	0.8965010011630314	0.3933071091505513	-0.2613881965275286	-0.2532584299135494	-0.01973356643127727	0.04178970397331483	0.04178970397331419	-0.17453279762716	0.1588110920264373	-0.04283164834057547	-0.0118578551075379	-0.2239833133586537	-0.128882642065248	-0.05650784043051682	0.6172582540596609	-0.04947174495289262	0.115256184445394	-0.2729756769488156	0.3736281876954694	0.3736281876954649	1.189082812601612e-05	0.01089948457887691	-0.01942411390658312	-0.05515796607803032	0.1094033278237844	-0.06558235480380896	-0.03899280868291959	-0.2409708871580452	0.2057375005813643	-0.01614409268519903	-0.06561574255992196	24.90398876478762	-3.048690016629428	6.593895109782813	21.90170854105426	-586.199947852482	-77.51218336297258	-38.85691527809811	-4.093768835812265	-2.358183017287288	-1.094430424463158	11.34974273557869	-0.901053384013878	2.149377143642768	-4.891106666883626	6.909648067295352	6.909648067295351	-0.01828629832468859	0.1789971171595393	-0.3322550357298759	-1.000968727818254	-7.863235719218273e-08	1.375332503454135e-07	1.545125294181528e-07	5.179660934352838e-08	-3.726330282951089e-07	7.622974238460991e-08	-2.387186531009407e-08
